<svg width="483" height="342" viewBox="0 0 483 342" fill="none" xmlns="http://www.w3.org/2000/svg">
<g clip-path="url(#clip0_1_270)">
<path opacity="0.1" d="M160.577 341.808C184.099 341.808 203.167 338.746 203.167 334.97C203.167 331.193 184.099 328.132 160.577 328.132C137.056 328.132 117.988 331.193 117.988 334.97C117.988 338.746 137.056 341.808 160.577 341.808Z" fill="#AA0113"/>
<path opacity="0.1" d="M392.09 342C421.441 342 445.236 338.939 445.236 335.162C445.236 331.386 421.441 328.324 392.09 328.324C362.739 328.324 338.944 331.386 338.944 335.162C338.944 338.939 362.739 342 392.09 342Z" fill="#AA0113"/>
<path opacity="0.1" d="M6.04928 147.769H50.4094V208.209H9.29685C9.18757 208.829 9.08267 209.454 8.96903 210.079H50.4094V258.822C50.3351 258.8 50.2695 258.774 50.1996 258.748C49.0282 258.285 47.8655 257.795 46.7029 257.271L45.9598 256.935C44.7942 256.384 43.6287 255.802 42.4631 255.187C42.0566 254.973 41.6501 254.75 41.248 254.523C34.7773 250.9 28.899 246.308 23.8169 240.908C23.6683 240.764 23.5284 240.611 23.3798 240.471C22.6717 239.702 21.9768 238.925 21.3037 238.129L20.5606 237.256C19.7651 236.281 18.9958 235.281 18.2484 234.267C18.1391 234.118 18.0342 233.97 17.9206 233.83C14.8809 229.617 12.3569 225.055 10.4027 220.242C10.3415 220.097 10.289 219.94 10.2322 219.805C9.63195 218.261 9.10016 216.703 8.63684 215.13C8.43578 214.47 8.24346 213.819 8.07737 213.133C8.01618 212.932 7.96373 212.735 7.91565 212.539C5.43299 202.852 5.14014 192.79 5.14014 182.797C5.14014 181.63 5.14014 180.459 5.14014 179.302C5.14014 175.26 5.18822 171.192 5.25815 167.129C5.25815 166.076 5.30186 165.027 5.32371 163.97C5.38491 161.287 5.47232 158.604 5.58597 155.922C5.61219 155.175 5.64716 154.432 5.6865 153.689C5.6865 153.261 5.70835 152.833 5.75206 152.404C5.85696 150.849 5.94438 149.307 6.04928 147.769Z" fill="#AA0113"/>
<path opacity="0.1" d="M50.4094 80.4732H26.0767C30.0321 74.2844 34.3538 68.3375 39.0188 62.664C42.6336 58.2248 46.4493 53.8993 50.4094 49.731V80.4732Z" fill="#AA0113"/>
<path opacity="0.1" d="M50.4094 82.3432V145.899H6.18921C6.18921 145.715 6.2198 145.527 6.23292 145.344C6.27226 144.841 6.31159 144.339 6.3553 143.841C6.40338 143.255 6.45583 142.665 6.51265 142.093C6.56947 141.521 6.63067 140.821 6.69623 140.188C6.76179 139.554 6.82299 138.912 6.89729 138.279C6.9716 137.645 7.03716 137.011 7.11584 136.382C7.19451 135.753 7.26445 135.115 7.34749 134.486C7.41306 133.962 7.48299 133.442 7.55292 132.917C7.65345 132.179 7.75836 131.436 7.872 130.702C7.872 130.593 7.90259 130.479 7.92008 130.375C8.71785 125.001 9.80486 119.674 11.1764 114.418C12.612 108.904 14.4453 103.501 16.6618 98.2517C19.0176 92.7603 21.7758 87.4503 24.9141 82.365L50.4094 82.3432Z" fill="#AA0113"/>
<path opacity="0.1" d="M61 147.764V208.209H155.748V147.764H61ZM61 210.074V261.981C61.542 262.095 62.0796 262.204 62.6129 262.296C63.3384 262.436 64.0596 262.562 64.7983 262.672C64.9382 262.693 65.0824 262.715 65.2354 262.728C65.5239 262.776 65.8211 262.816 66.1096 262.855C66.8395 262.956 67.5651 263.039 68.295 263.104C68.6403 263.139 68.99 263.17 69.3396 263.196L70.1832 263.261C70.6422 263.296 71.0967 263.323 71.5469 263.336C71.8267 263.336 72.1064 263.362 72.3949 263.371C72.6134 263.371 72.832 263.371 73.0593 263.371C73.2865 263.371 73.61 263.371 73.8854 263.371C74.2613 263.371 74.6372 263.371 75.0087 263.371H75.5113C75.8872 263.371 76.2631 263.371 76.6346 263.336H76.6609C76.9188 263.336 77.181 263.336 77.4433 263.301C77.516 263.305 77.589 263.305 77.6618 263.301C77.8803 263.301 78.0989 263.301 78.3087 263.27H78.4617L79.9259 263.157C80.4067 263.113 80.8919 263.056 81.3814 263.004L82.378 262.886C86.4323 262.318 90.4416 261.465 94.3761 260.334C103.214 257.87 111.86 254.422 120.693 251.897C132.114 248.642 144.733 247.043 155.769 251.023V210.074H61ZM155.748 80.4732V0.00436833C145.374 -0.107976 135.029 1.10485 124.964 3.61338C100.972 9.6386 79.4451 22.7071 61 39.3977V80.4688H65.7555V82.3345H61V145.899H155.748V82.3388H85.2803V80.4732H155.748ZM277.446 53.292C271.51 53.0822 265.61 51.2034 260.273 48.3022C250.067 42.7533 241.915 34.1851 232.806 26.954C213.88 11.8931 190.409 2.80507 166.33 0.550527V80.4732H301.586L301.923 80.1192L277.446 53.292ZM289.768 51.1073L302.832 65.4385V47.3497C298.457 47.8915 294.624 49.1805 289.785 51.0898L289.768 51.1073ZM302.832 274.871V210.074H274.994C274.92 209.799 274.845 209.519 274.758 209.24C274.841 209.519 274.911 209.799 274.99 210.074H166.347V256.935C167.379 257.699 168.397 258.503 169.407 259.32C170.495 260.194 171.57 261.116 172.65 262.021L173.738 262.921C174.258 263.358 174.783 263.794 175.312 264.205C176.361 265.056 177.42 265.895 178.489 266.722C179.018 267.159 179.56 267.552 180.098 267.963C188.633 274.486 197.636 280.373 207.036 285.575C209.142 286.74 211.268 287.878 213.413 288.988C214.842 289.717 216.28 290.443 217.722 291.146C219.89 292.203 222.076 293.223 224.279 294.205C244.589 303.318 266.065 309.572 288.094 312.787C292.986 313.509 297.897 314.077 302.828 314.491V274.866H303.265L302.832 274.871ZM166.347 82.3388V145.899H302.85V82.3388H166.347ZM166.347 147.764V208.209H302.85V147.764H166.347ZM313.445 47.2711V67.4484L330.12 49.1586C324.595 48.2673 319.036 47.6308 313.445 47.2493V47.2711ZM313.445 147.786V208.209H446.21V147.764L313.445 147.786ZM445.725 279.668L446.193 210.074H313.445V315.186C321.996 315.545 330.561 315.443 339.102 314.88H339.25C343.33 314.624 347.39 314.251 351.432 313.761H351.524C373.086 311.253 394.169 305.629 414.115 297.066M471.811 157.717C471.312 156.542 470.792 155.376 470.263 154.222C469.275 152.037 468.231 149.914 467.156 147.79H456.797V208.209H482.987C482.974 191.099 478.642 173.622 471.824 157.696L471.811 157.717ZM456.797 210.096V269.955C464.175 262.886 470.407 254.798 474.896 245.553C480.294 234.42 482.764 222.365 482.965 210.087L456.797 210.096ZM456.797 130.174V145.903H466.185C463.345 140.488 460.215 135.23 456.81 130.152L456.797 130.174ZM366.756 59.1293C366.066 58.8671 365.375 58.6006 364.68 58.3428C357.351 55.6371 349.861 53.387 342.253 51.6054L316.736 79.5993L316.246 80.1192L316.574 80.4775H407.392C394.744 71.7742 381.108 64.6007 366.769 59.1074L366.756 59.1293ZM410.054 82.3607H315.307L313.445 84.0647V145.899H329.766H329.792H446.228V115.947C435.695 103.213 423.538 91.9143 410.067 82.3388L410.054 82.3607Z" fill="#AA0113"/>
<path opacity="0.1" d="M50.4094 114.401V145.899H6.18921C6.18921 145.715 6.2198 145.527 6.23292 145.344C6.27226 144.841 6.31159 144.339 6.3553 143.841C6.40338 143.255 6.45583 142.665 6.51265 142.093C6.56947 141.521 6.63067 140.821 6.69623 140.188C6.76179 139.554 6.82299 138.912 6.89729 138.279C6.9716 137.645 7.03716 137.011 7.11584 136.382C7.19451 135.753 7.26445 135.115 7.34749 134.486C7.41306 133.962 7.48299 133.442 7.55292 132.917C7.65345 132.179 7.75836 131.436 7.872 130.702C7.872 130.593 7.90259 130.479 7.92008 130.375C8.71785 125.001 9.80486 119.674 11.1764 114.418L50.4094 114.401Z" fill="#AA0113"/>
<path opacity="0.1" d="M6.04928 147.769H50.4094V208.209H9.29685C9.18757 208.829 9.08267 209.454 8.96903 210.079H50.4094V258.822C50.3351 258.8 50.2695 258.774 50.1996 258.748C49.0282 258.285 47.8655 257.795 46.7029 257.271L45.9598 256.935C44.7942 256.384 43.6287 255.802 42.4631 255.187C42.0566 254.973 41.6501 254.75 41.248 254.523C34.7773 250.9 28.899 246.308 23.8169 240.908C23.6683 240.764 23.5284 240.611 23.3798 240.471C22.6717 239.702 21.9768 238.925 21.3037 238.129L20.5606 237.256C19.7651 236.281 18.9958 235.281 18.2484 234.267C18.1391 234.118 18.0342 233.97 17.9206 233.83C14.8809 229.617 12.3569 225.055 10.4027 220.242C10.3415 220.097 10.289 219.94 10.2322 219.805C9.63195 218.261 9.10016 216.703 8.63684 215.13C8.43578 214.47 8.24346 213.819 8.07737 213.133C8.01618 212.932 7.96373 212.735 7.91565 212.539C5.43299 202.852 5.14014 192.79 5.14014 182.797C5.14014 181.63 5.14014 180.459 5.14014 179.302C5.14014 175.26 5.18822 171.192 5.25815 167.129C5.25815 166.076 5.30186 165.027 5.32371 163.97C5.38491 161.287 5.47232 158.604 5.58597 155.922C5.61219 155.175 5.64716 154.432 5.6865 153.689C5.6865 153.261 5.70835 152.833 5.75206 152.404C5.85696 150.849 5.94438 149.307 6.04928 147.769Z" fill="#AA0113"/>
<path opacity="0.1" d="M94.3542 91.44V145.899H61V91.44H65.7555V73.0017H85.2759V91.44H94.3542Z" fill="#AA0113"/>
<path opacity="0.1" d="M94.3542 147.764H61.0044V208.204H94.3542V147.764Z" fill="#AA0113"/>
<path opacity="0.1" d="M61 210.079H94.3542V260.325C90.4197 261.455 86.4104 262.307 82.3561 262.873L81.3596 262.995C80.87 263.052 80.3849 263.1 79.9041 263.148C79.4233 263.196 78.925 263.231 78.4398 263.261H78.2868C78.077 263.261 77.8498 263.288 77.6443 263.292H77.4214C77.1591 263.292 76.8969 263.318 76.6346 263.327C76.2631 263.349 75.8916 263.353 75.5113 263.358C75.3496 263.358 75.1966 263.358 75.0349 263.358C74.659 263.358 74.2875 263.358 73.9116 263.358H73.0855C72.8626 263.358 72.6484 263.358 72.4167 263.358L71.5732 263.327C71.1361 263.327 70.664 263.279 70.2094 263.248L69.3702 263.187L68.3256 263.091C67.5913 263.026 66.8614 262.942 66.1402 262.842L65.266 262.72L64.8289 262.658C64.099 262.545 63.3778 262.423 62.6434 262.283C62.1058 262.191 61.5726 262.077 61.0306 261.968L61 210.079Z" fill="#AA0113"/>
<path opacity="0.1" d="M302.85 85.0085H275.348V145.894H302.85V85.0085Z" fill="#AA0113"/>
<path opacity="0.1" d="M302.854 147.764V208.209H166.347V182.137H239.057V197.517H275.348V147.764H302.854Z" fill="#AA0113"/>
<path opacity="0.1" d="M303.287 274.884H302.85V314.535C297.925 314.118 293.015 313.552 288.12 312.835C266.08 309.61 244.595 303.343 224.279 294.213C218.413 291.574 212.667 288.693 207.04 285.571C197.641 280.366 188.636 274.479 180.098 267.958C177.953 266.316 175.836 264.635 173.747 262.916C172.3 261.723 170.862 260.5 169.407 259.312C168.397 258.495 167.379 257.691 166.347 256.922V210.079H274.985C274.911 209.799 274.837 209.519 274.758 209.244C274.841 209.519 274.92 209.799 274.994 210.079H302.85V274.857C302.998 274.862 303.143 274.875 303.287 274.884Z" fill="#AA0113"/>
<path opacity="0.1" d="M374.576 80.4732H356.655V74.9067H364.689V58.3253C365.385 58.5788 366.079 58.8395 366.77 59.1075V74.9067H374.576V80.4732Z" fill="#AA0113"/>
<path opacity="0.1" d="M417.751 145.899H329.774C329.774 145.899 329.774 145.899 329.805 145.92L329.766 145.899H313.445V85.0128H318.069V130.016H339.202V103.364H356.66V82.3432H374.58V103.381H392.038V130.034H417.751V145.899Z" fill="#AA0113"/>
<path opacity="0.1" d="M313.445 147.764V208.209H417.751V147.764H313.445ZM446.066 279.358L446.21 231.514H417.751V210.105H313.445V315.186C321.996 315.545 330.561 315.443 339.102 314.88H339.25C343.33 314.624 347.39 314.251 351.432 313.761H351.524C373.086 311.253 394.169 305.629 414.115 297.066" fill="#AA0113"/>
<path opacity="0.1" d="M458.65 210.079H482.982C482.768 222.352 480.303 234.407 474.909 245.54C470.421 254.789 464.183 262.877 456.814 269.942V231.493H458.65V210.079Z" fill="#AA0113"/>
<path opacity="0.1" d="M482.996 208.209H458.65V157.696H471.824C478.642 173.622 482.974 191.099 482.996 208.209Z" fill="#AA0113"/>
<path opacity="0.1" d="M302.854 101.935H288.12V121.024H302.854V101.935Z" fill="#AA0113"/>
<path opacity="0.1" d="M302.854 141.503H288.12V145.899H302.854V141.503Z" fill="#AA0113"/>
<path opacity="0.1" d="M302.854 147.764H288.12V160.588H302.854V147.764Z" fill="#AA0113"/>
<path opacity="0.1" d="M302.854 181.071H288.12V200.16H302.854V181.071Z" fill="#AA0113"/>
<path opacity="0.1" d="M302.854 220.639H288.12V239.729H302.854V220.639Z" fill="#AA0113"/>
<path opacity="0.1" d="M302.85 274.857C302.998 274.857 303.143 274.857 303.287 274.884H302.85V279.318H288.12V260.207H302.85V274.857Z" fill="#AA0113"/>
<path opacity="0.1" d="M302.85 299.767V314.513C297.925 314.096 293.015 313.53 288.12 312.813V299.767H302.85Z" fill="#AA0113"/>
<path opacity="0.1" d="M229.493 206.806H166.347V208.209H229.493V206.806Z" fill="#AA0113"/>
<path opacity="0.1" d="M229.493 210.074H166.347V215.449H229.493V210.074Z" fill="#AA0113"/>
<path opacity="0.1" d="M229.493 233.065H166.347V241.708H229.493V233.065Z" fill="#AA0113"/>
<path opacity="0.1" d="M229.489 259.325V267.967H180.098C177.953 266.33 175.835 264.649 173.743 262.925C172.296 261.732 170.862 260.509 169.402 259.325H229.489Z" fill="#AA0113"/>
<path opacity="0.1" d="M229.489 285.58V294.213H224.274C218.414 291.571 212.67 288.689 207.04 285.567L229.489 285.58Z" fill="#AA0113"/>
<path opacity="0.1" d="M351.537 153.623H339.106V166.05H351.537V153.623Z" fill="#AA0113"/>
<path opacity="0.1" d="M82.3867 95.7263H69.9559V108.152H82.3867V95.7263Z" fill="#AA0113"/>
<path opacity="0.1" d="M82.3867 124.59H69.9559V137.016H82.3867V124.59Z" fill="#AA0113"/>
<path opacity="0.1" d="M82.3867 153.453H69.9559V165.879H82.3867V153.453Z" fill="#AA0113"/>
<path opacity="0.1" d="M82.3867 182.312H69.9559V194.738H82.3867V182.312Z" fill="#AA0113"/>
<path opacity="0.1" d="M82.3867 211.175H69.9559V223.602H82.3867V211.175Z" fill="#AA0113"/>
<path opacity="0.1" d="M82.3867 240.039H69.9559V252.465H82.3867V240.039Z" fill="#AA0113"/>
<path opacity="0.1" d="M398.992 153.623H386.561V166.05H398.992V153.623Z" fill="#AA0113"/>
<path opacity="0.1" d="M351.537 184.274H339.106V196.7H351.537V184.274Z" fill="#AA0113"/>
<path opacity="0.1" d="M398.992 184.274H386.561V196.7H398.992V184.274Z" fill="#AA0113"/>
<path opacity="0.1" d="M351.537 214.92H339.106V227.346H351.537V214.92Z" fill="#AA0113"/>
<path opacity="0.1" d="M398.992 214.92H386.561V227.346H398.992V214.92Z" fill="#AA0113"/>
<path opacity="0.1" d="M351.537 245.57H339.106V257.996H351.537V245.57Z" fill="#AA0113"/>
<path opacity="0.1" d="M398.992 245.57H386.561V257.996H398.992V245.57Z" fill="#AA0113"/>
<path opacity="0.1" d="M351.537 276.221H339.106V288.647H351.537V276.221Z" fill="#AA0113"/>
<path opacity="0.1" d="M398.992 276.221H386.561V288.647H398.992V276.221Z" fill="#AA0113"/>
<path opacity="0.1" d="M339.106 314.88V306.867H351.533V313.74L339.106 314.88Z" fill="#AA0113"/>
<path opacity="0.1" d="M7.86755 130.366V137.475H50.4094V130.366H7.86755ZM12.1073 137.029H8.63683V130.803H12.1335L12.1073 137.029ZM16.3427 137.029H12.846V130.803H16.3427V137.029ZM20.5693 137.029H17.0726V130.803H20.5693V137.029ZM24.8047 137.029H21.3124V130.803H24.8091L24.8047 137.029ZM29.0357 137.029H25.539V130.803H29.0357V137.029ZM33.2711 137.029H29.7744V130.803H33.2711V137.029ZM37.5065 137.029H34.0098V130.803H37.5065V137.029ZM41.7375 137.029H38.2408V130.803H41.7375V137.029ZM45.9685 137.029H42.4718V130.803H45.9685V137.029ZM50.1995 137.029H46.7028V130.803H50.1995V137.029Z" fill="#AA0113"/>
<path opacity="0.1" d="M7.86755 151.05V158.159H50.4094V151.05H7.86755ZM12.1073 157.709H8.63683V151.5H12.1335L12.1073 157.709ZM16.3427 157.709H12.846V151.5H16.3427V157.709ZM20.5693 157.709H17.0726V151.5H20.5693V157.709ZM24.8047 157.709H21.3124V151.5H24.8091L24.8047 157.709ZM29.0357 157.709H25.539V151.5H29.0357V157.709ZM33.2711 157.709H29.7744V151.5H33.2711V157.709ZM37.5065 157.709H34.0098V151.5H37.5065V157.709ZM41.7375 157.709H38.2408V151.5H41.7375V157.709ZM45.9685 157.709H42.4718V151.5H45.9685V157.709ZM50.1995 157.709H46.7028V151.5H50.1995V157.709Z" fill="#AA0113"/>
<path opacity="0.1" d="M7.86755 171.743V178.865H50.4094V171.743H7.86755ZM12.1073 178.402H8.63683V172.188H12.1335L12.1073 178.402ZM16.3427 178.402H12.846V172.188H16.3427V178.402ZM20.5693 178.402H17.0726V172.188H20.5693V178.402ZM24.8047 178.402H21.3124V172.188H24.8091L24.8047 178.402ZM29.0357 178.402H25.539V172.188H29.0357V178.402ZM33.2711 178.402H29.7744V172.188H33.2711V178.402ZM37.5065 178.402H34.0098V172.188H37.5065V178.402ZM41.7375 178.402H38.2408V172.188H41.7375V178.402ZM45.9685 178.402H42.4718V172.188H45.9685V178.402ZM50.1995 178.402H46.7028V172.188H50.1995V178.402Z" fill="#AA0113"/>
<path opacity="0.1" d="M7.86755 192.436V199.536H50.4094V192.436H7.86755ZM12.1073 199.094H8.63683V192.877H12.1335L12.1073 199.094ZM16.3427 199.094H12.846V192.877H16.3427V199.094ZM20.5693 199.094H17.0726V192.877H20.5693V199.094ZM24.8047 199.094H21.3124V192.877H24.8091L24.8047 199.094ZM29.0357 199.094H25.539V192.877H29.0357V199.094ZM33.2711 199.094H29.7744V192.877H33.2711V199.094ZM37.5065 199.094H34.0098V192.877H37.5065V199.094ZM41.7375 199.094H38.2408V192.877H41.7375V199.094ZM45.9685 199.094H42.4718V192.877H45.9685V199.094ZM50.1995 199.094H46.7028V192.877H50.1995V199.094Z" fill="#AA0113"/>
<path opacity="0.1" d="M8.05115 213.124C8.22161 213.793 8.41393 214.461 8.61499 215.121V213.57H12.1117V219.783H10.241C10.2978 219.927 10.3546 220.084 10.4114 220.22H50.4094V213.124H8.05115ZM16.3558 219.783H12.8591V213.57H16.3558V219.783ZM20.5825 219.783H17.0858V213.57H20.5825V219.783ZM24.8179 219.783H21.3124V213.57H24.8091L24.8179 219.783ZM29.0489 219.783H25.5522V213.57H29.0489V219.783ZM33.2843 219.783H29.7875V213.57H33.2843V219.783ZM37.5196 219.783H34.0229V213.57H37.5196V219.783ZM41.7506 219.783H38.2539V213.57H41.7506V219.783ZM45.9817 219.783H42.485V213.57H45.9817V219.783ZM50.2127 219.783H46.716V213.57H50.2127V219.783Z" fill="#AA0113"/>
<path opacity="0.1" d="M17.9293 233.817C18.0386 233.957 18.1435 234.114 18.2571 234.254H20.5693V237.238C20.8185 237.535 21.0632 237.832 21.3168 238.112V234.236H24.8135V240.471H23.3973C23.5372 240.616 23.6727 240.768 23.8344 240.908H50.4225V233.817H17.9293ZM29.0357 240.471H25.539V234.263H29.0357V240.471ZM33.2711 240.471H29.7744V234.263H33.2711V240.471ZM37.5065 240.471H34.0098V234.263H37.5065V240.471ZM41.7375 240.471H38.2408V234.263H41.7375V240.471ZM45.9685 240.471H42.4718V234.263H45.9685V240.471ZM50.1995 240.471H46.7028V234.263H50.1995V240.471Z" fill="#AA0113"/>
<path opacity="0.1" d="M41.2655 254.505C41.6633 254.733 42.0697 254.942 42.4806 255.17V254.951H45.9773V256.917L46.7204 257.262V254.951H50.2171V258.731C50.2841 258.764 50.3544 258.79 50.4269 258.809V254.505H41.2655Z" fill="#AA0113"/>
<path opacity="0.1" d="M274.758 209.24C274.841 209.519 274.911 209.799 274.99 210.074C274.92 209.799 274.845 209.519 274.758 209.24ZM65.7731 80.4601V82.3257H85.2978V80.4601H65.7731ZM274.758 209.24C274.841 209.519 274.911 209.799 274.99 210.074C274.92 209.799 274.845 209.519 274.758 209.24ZM274.758 209.24C274.841 209.519 274.911 209.799 274.99 210.074C274.92 209.799 274.845 209.519 274.758 209.24Z" fill="#AA0113"/>
<path d="M201.76 165.888C201.76 165.888 200.038 165.648 200.038 163.14C200.038 160.632 198.805 155.948 198.805 155.948C198.805 155.926 197.739 147.79 196.266 146.497C194.793 145.204 192.9 137.61 192.9 137.61C192.9 137.61 192.577 133.49 191.917 132.603C191.257 131.716 190.365 129.544 189.049 126.447C187.734 123.349 182.248 121.203 182.248 121.203C182.248 121.203 172.331 115.453 169.52 113.579C169.265 113.425 169.026 113.245 168.808 113.042C168.318 112.399 166.185 112.386 166.185 112.386C165.962 110.979 165.748 109.363 165.678 107.899C165.678 107.742 165.678 107.584 165.656 107.427C168.79 105.575 171.151 102.656 172.305 99.2042C172.357 99.0382 172.401 98.8634 172.449 98.6974C172.637 98.6355 172.809 98.5352 172.956 98.4028C173.103 98.2704 173.22 98.1088 173.301 97.9284C173.555 97.3647 173.559 96.705 173.874 96.1807C174.241 95.5602 174.94 95.2282 175.491 94.7607C176.881 93.581 177.239 91.5929 177.174 89.7841C177.13 88.3204 176.894 86.8435 176.986 85.3886L177.012 85.0216C177.038 84.8031 177.069 84.5846 177.108 84.3749C177.322 83.2913 177.79 82.2689 178.052 81.1941C178.315 80.1192 178.341 78.909 177.729 77.9827C176.833 76.6238 174.966 76.3529 173.327 76.2131C171.47 76.0558 169.809 76.2612 168.62 74.7188C168.063 73.9127 167.438 73.1568 166.749 72.4599C166.504 72.2327 164.127 70.7821 164.127 70.686C161.806 69.6116 159.175 69.4099 156.718 70.118C155.485 70.4763 154.323 71.0617 153.073 71.3545C150.376 71.9924 147.272 71.3021 144.982 72.8444C143.706 73.7183 142.941 75.1077 142.224 76.4622C141.641 77.5778 141.05 78.6919 140.45 79.8047C139.484 81.6354 138.5 83.4967 138.094 85.524C138.008 85.9652 137.956 86.4121 137.936 86.861V86.8829C137.936 87.0445 137.936 87.2062 137.936 87.3679V87.5732C137.936 87.7261 137.936 87.8747 137.963 88.0101C137.989 88.1456 137.984 88.1893 137.997 88.281C138.011 88.3728 138.032 88.5781 138.059 88.718C138.085 88.8578 138.137 89.1025 138.19 89.2947C138.212 89.3777 138.242 89.4564 138.268 89.535C138.312 89.6836 138.365 89.8277 138.421 89.9719C138.452 90.0462 138.483 90.1249 138.518 90.1991C138.583 90.3521 138.662 90.5006 138.741 90.6361C138.776 90.6972 138.802 90.754 138.837 90.8108C138.959 91.014 139.093 91.2096 139.239 91.3963C140.174 92.5629 141.551 93.3057 142.569 94.398C142.569 94.4417 142.569 94.4854 142.569 94.5247C142.569 94.6471 142.569 94.765 142.569 94.8874C142.623 97.3235 143.272 99.7095 144.459 101.838C145.646 103.966 147.335 105.772 149.379 107.099C149.379 107.265 149.401 107.436 149.41 107.602C149.495 108.899 149.479 110.2 149.362 111.495C149.184 111.285 148.961 111.118 148.71 111.007C148.459 110.895 148.186 110.841 147.911 110.848C147.723 110.839 147.535 110.855 147.351 110.896L147.312 110.866V110.905C146.35 111.141 145.166 112.142 144.034 114.986C144.034 114.986 140.589 118.866 137.967 118.704C135.344 118.543 128.705 122.741 128.705 122.741C128.705 122.741 122.227 126.945 120.837 131.227C120.06 133.655 119.129 136.031 118.049 138.34L110.041 154.834L108.564 167.92C108.564 167.92 109.381 173.74 109.22 174.626C109.058 175.513 112.581 183.514 112.581 183.514C112.581 183.514 124.22 203.957 128.976 205.006L129.317 204.766C129.52 204.872 129.736 204.953 129.959 205.006L130.939 204.316C130.997 205.085 130.972 205.859 130.864 206.623C130.209 208.641 131.109 221.815 132.254 224.397C133.399 226.979 132.993 260.836 132.993 260.836L132.831 263.825C132.831 263.825 132.831 263.921 132.87 264.087L132.831 264.795L132.949 264.856C133.072 265.804 133.032 266.766 132.831 267.701C132.42 269.011 132.254 272.717 132.254 272.717C132.254 272.717 128.98 293.637 130.532 297.84C132.084 302.043 133.404 306.648 133.404 306.648C133.404 306.648 135.043 311.891 133.482 312.787C131.922 313.683 127.486 315.186 128.399 317.37C129.229 319.389 132.381 324.798 132.849 325.589L132.809 326.004L132.167 332.964C132.271 333.883 132.52 334.78 132.905 335.621C133.609 337.137 134.977 338.71 137.578 338.54C138.015 338.509 138.522 338.457 139.012 338.391C143.771 337.753 149.633 335.63 149.633 335.63C149.328 335.436 149.049 335.206 148.802 334.944C148.568 334.717 148.383 334.445 148.257 334.145C148.132 333.844 148.069 333.521 148.072 333.196C148.142 331.929 145.769 325.891 145.179 324.405C145.087 324.191 145.039 324.069 145.039 324.069C145.039 324.069 150.45 318.415 149.55 313.403C149.55 313.403 143.562 309.908 145.533 307.99C147.504 306.072 151.027 300.562 151.027 300.562C151.027 300.562 151.189 279.961 151.027 276.885C150.858 274.75 150.96 272.602 151.329 270.493C151.394 270.174 151.473 269.863 151.556 269.558C154.282 269.964 157.034 270.173 159.791 270.182C160.796 270.182 161.819 270.182 162.85 270.121C162.85 270.412 162.863 270.727 162.89 271.065C163.117 276.168 163.541 285.116 163.886 288.441C164.376 293.208 167.081 306.054 167.081 306.054C167.081 306.054 161.919 309.366 167.982 317.528C167.982 317.528 167.982 320.486 167.58 320.914C167.15 322.314 166.804 323.738 166.544 325.178C166.29 326.716 166.185 328.272 166.596 329.08C167.58 331.011 173.48 330.854 173.48 330.854L173.625 330.828C174.739 330.713 175.864 330.82 176.937 331.143C178.009 331.466 179.006 331.999 179.871 332.711C182.113 334.511 190.623 333.72 195.23 333.148C197.035 332.921 198.241 332.711 198.241 332.711C198.3 332.507 198.321 332.293 198.303 332.082C198.254 330.95 197.367 328.468 191.353 326.253C191.353 326.253 185.697 322.452 185.776 319.14H185.658H185.002C185.478 319.114 185.784 319.14 185.784 319.14C185.784 319.14 183.568 311.057 184.473 310.401C185.378 309.746 182.668 300.789 182.668 300.789C182.668 300.789 181.116 285.759 181.033 284.706C181.037 283.802 181.174 282.904 181.44 282.041L181.033 273.8C181.033 273.8 180.955 271.061 181.033 270.169C181.02 269.396 180.957 268.624 180.845 267.858C180.806 267.552 180.767 267.233 180.723 266.919C182.843 266.381 184.22 265.883 184.22 265.883L183.975 237.199C185.776 233.703 186.108 226.035 186.099 220.596C186.099 217.1 185.942 214.514 185.942 214.514L188.403 210.498C188.403 210.498 188.971 205.692 188.07 204.639C187.673 204.163 187.852 203.669 188.18 203.263C188.35 203.128 188.53 203.005 188.717 202.896C188.717 202.896 188.691 202.856 188.66 202.8C188.832 202.656 189.015 202.526 189.207 202.411C189.207 202.411 188.333 201.056 189.115 200.484C189.849 200.982 190.505 201.358 191.003 201.663C190.968 201.982 190.933 202.166 190.933 202.166L191.143 201.729C191.624 202 191.917 202.166 191.917 202.166C191.917 202.166 195.772 194.489 195.689 193.358C195.606 192.226 198.311 187.459 198.311 187.459C198.311 187.459 198.639 184.955 200.116 183.907C201.594 182.858 201.262 175.26 201.262 175.26C201.262 175.26 201.673 171.301 202.656 169.685C203.639 168.068 201.76 165.888 201.76 165.888ZM127.997 162.519L128.071 164.35C127.634 163.647 127.319 163.14 127.319 163.14L127.997 162.519Z" fill="url(#paint0_linear_1_270)"/>
<path d="M192.127 198.85L191.182 202.869C191.182 202.869 183.621 199.011 182.257 194.109C180.893 189.207 184.539 187.345 184.539 187.345L191.585 190.33L192.127 198.85Z" fill="white"/>
<path opacity="0.1" d="M192.127 198.85L191.182 202.869C191.182 202.869 183.621 199.011 182.257 194.109C180.893 189.207 184.539 187.345 184.539 187.345L191.585 190.33L192.127 198.85Z" fill="black"/>
<path d="M149.69 335.656C149.69 335.656 142.696 338.225 137.888 338.548C135.336 338.719 133.994 337.154 133.303 335.647C132.926 334.809 132.683 333.917 132.582 333.004L133.207 326.078L133.539 322.391L143.754 319.739L145.201 324.16L145.336 324.497C145.918 325.974 148.247 331.981 148.177 333.235C148.174 333.556 148.236 333.875 148.36 334.171C148.483 334.468 148.665 334.736 148.894 334.961C149.129 335.226 149.396 335.459 149.69 335.656Z" fill="white"/>
<path d="M197.459 332.134C197.476 332.344 197.456 332.556 197.398 332.759C197.398 332.759 182.441 335.254 179.381 332.759C178.518 332.03 177.513 331.49 176.429 331.172C175.345 330.855 174.207 330.767 173.087 330.915C173.087 330.915 167.3 331.072 166.334 329.167C165.932 328.368 166.037 326.817 166.286 325.288C166.54 323.855 166.879 322.438 167.3 321.045L167.532 320.861L168.908 319.756L185.028 319.28H185.151C185.072 322.574 190.623 326.354 190.623 326.354C196.519 328.538 197.389 331.007 197.459 332.134Z" fill="white"/>
<path opacity="0.1" d="M197.459 332.134C197.474 332.345 197.452 332.556 197.393 332.759C197.393 332.759 182.441 335.254 179.381 332.759C178.519 332.031 177.514 331.491 176.431 331.173C175.348 330.856 174.21 330.768 173.091 330.915C173.091 330.915 167.3 331.072 166.338 329.167C165.936 328.364 166.037 326.817 166.286 325.288C168.515 325.51 172.034 326.065 173.415 327.389C175.504 329.403 179.044 331.413 181.217 331.571C182.917 331.68 193.088 332.003 197.459 332.134Z" fill="black"/>
<path opacity="0.1" d="M149.69 335.656C149.69 335.656 142.696 338.225 137.888 338.548C135.336 338.719 133.994 337.155 133.308 335.643C135.087 336.241 137.556 336.87 138.854 336.294C140.393 335.612 145.848 335.171 148.907 334.983C149.14 335.238 149.403 335.464 149.69 335.656Z" fill="black"/>
<path d="M160.066 128.618C154.297 126.377 146.875 118.971 148.728 115.51C149.14 114.637 149.384 113.695 149.449 112.731C149.568 111.424 149.586 110.109 149.502 108.799C149.372 106.653 149.113 104.517 148.728 102.403C148.728 102.403 166.74 102.809 165.691 105.461C165.386 106.239 165.337 107.589 165.42 109.101C165.504 110.612 165.722 112.321 165.949 113.767C166.264 115.751 166.579 117.262 166.579 117.262C166.579 117.262 165.477 118.805 164.83 118.888C164.184 118.971 168.345 131.812 160.066 128.618Z" fill="#CF6F80"/>
<path opacity="0.1" d="M145.323 324.497L145.188 324.645C139.803 318.135 133.29 326.249 133.29 326.249L133.194 326.078L133.526 322.391L143.741 319.739L145.188 324.16L145.323 324.497Z" fill="black"/>
<path opacity="0.1" d="M185.155 319.739C185.155 319.739 181.221 319.656 179.123 321.508C177.025 323.361 166.885 321.91 167.322 321.508C167.451 321.309 167.529 321.081 167.549 320.844L168.926 319.739L185.046 319.262C185.107 319.555 185.155 319.739 185.155 319.739Z" fill="black"/>
<path d="M152.024 268.614C151.731 269.338 151.508 270.088 151.359 270.855C150.995 272.955 150.893 275.092 151.058 277.217C151.219 280.275 151.058 300.772 151.058 300.772C151.058 300.772 147.6 306.238 145.673 308.164C143.745 310.091 149.607 313.552 149.607 313.552C150.481 318.533 145.183 324.16 145.183 324.16C139.798 317.65 133.286 325.768 133.286 325.768C133.286 325.768 129.745 319.651 128.862 317.467C127.979 315.282 132.32 313.77 133.845 312.883C135.371 311.996 133.771 306.766 133.771 306.766C133.771 306.766 132.481 302.183 130.952 298.001C129.422 293.82 132.639 273.005 132.639 273.005C132.639 273.005 132.805 269.308 133.203 268.02C133.403 267.089 133.443 266.132 133.321 265.188C133.294 264.869 133.264 264.603 133.242 264.424C133.22 264.245 133.203 264.161 133.203 264.161L133.264 264.057L135.449 259.984C135.449 259.984 153.073 266.049 152.024 268.614Z" fill="#AA0113"/>
<path d="M185.155 319.258C185.155 319.258 181.221 319.175 179.123 321.006C177.025 322.836 166.885 321.408 167.322 321.006C167.759 320.604 167.724 317.628 167.724 317.628C161.775 309.51 166.85 306.216 166.85 306.216C166.85 306.216 164.192 293.436 163.711 288.695C163.375 285.383 162.96 276.483 162.737 271.401C162.641 269.217 162.584 267.714 162.584 267.714L167.444 266.735L168.069 266.608L179.792 264.258C179.792 264.258 180.115 266.442 180.334 268.229C180.443 268.992 180.504 269.761 180.517 270.532C180.439 271.406 180.517 274.141 180.517 274.141L180.915 282.342C180.655 283.202 180.521 284.096 180.517 284.994C180.596 286.038 182.122 300.99 182.122 300.99C182.122 300.99 184.775 309.912 183.87 310.554C182.965 311.197 185.155 319.258 185.155 319.258Z" fill="#AA0113"/>
<path opacity="0.1" d="M165.691 105.461C165.385 106.239 165.337 107.589 165.42 109.101C163.008 110.553 160.234 111.295 157.418 111.243C154.602 111.19 151.858 110.345 149.502 108.803C149.372 106.656 149.114 104.519 148.728 102.403C148.728 102.403 166.74 102.8 165.691 105.461Z" fill="black"/>
<path d="M172.654 95.8049C172.658 97.3794 172.41 98.9443 171.92 100.441C170.825 103.794 168.579 106.651 165.58 108.509C162.581 110.367 159.022 111.105 155.531 110.594C152.04 110.082 148.842 108.353 146.503 105.712C144.164 103.071 142.834 99.6891 142.749 96.1632C142.749 96.0409 142.749 95.9273 142.749 95.8049C142.715 93.8202 143.076 91.8486 143.813 90.0052C144.549 88.1617 145.645 86.4832 147.037 85.0677C148.429 83.6521 150.089 82.5279 151.921 81.7604C153.752 80.993 155.718 80.5977 157.704 80.5977C159.689 80.5977 161.655 80.993 163.486 81.7604C165.318 82.5279 166.978 83.6521 168.37 85.0677C169.762 86.4832 170.858 88.1617 171.594 90.0052C172.331 91.8486 172.693 93.8202 172.659 95.8049H172.654Z" fill="#CF6F80"/>
<path opacity="0.1" d="M160.066 128.618C154.297 126.377 146.875 118.971 148.728 115.51C149.14 114.637 149.384 113.695 149.449 112.731L157.347 119.22L162.234 123.226L165.949 113.771C166.264 115.755 166.579 117.267 166.579 117.267C166.579 117.267 165.477 118.809 164.83 118.892C164.184 118.975 168.345 131.812 160.066 128.618Z" fill="black"/>
<path d="M180.491 157.294L173.896 268.055L165.294 268.618L143.02 204.394L146.674 128.146L147.443 112.037L157.347 120.168L162.238 124.175L166.063 114.444L173.174 120.64L180.491 157.294Z" fill="#AA0113"/>
<path opacity="0.1" d="M152.024 268.614C151.731 269.338 151.508 270.088 151.359 270.855C145.1 269.889 139.021 267.991 133.325 265.223L133.207 265.162L133.246 264.459L133.268 264.092L135.454 260.019C135.454 260.019 153.073 266.049 152.024 268.614Z" fill="black"/>
<path opacity="0.1" d="M167.545 270.873C165.945 271.145 164.331 271.328 162.71 271.423C162.614 269.239 162.557 267.736 162.557 267.736L167.418 266.757L167.545 270.873Z" fill="black"/>
<path opacity="0.1" d="M180.308 268.251C177.2 269.059 172.401 269.968 168.104 269.4L168.043 266.63L179.766 264.279C179.766 264.279 180.089 266.442 180.308 268.251Z" fill="black"/>
<path opacity="0.1" d="M168.025 269.907C150.105 272.966 133.692 264.196 133.692 264.196L133.849 261.225C133.849 261.225 134.256 227.543 133.128 224.96C132.001 222.378 131.122 209.284 131.76 207.274C132.398 205.264 129.431 175.125 129.431 175.125L128.95 162.891L111.353 155.764L119.22 139.371C120.283 137.072 121.197 134.708 121.956 132.293C123.324 128.037 129.675 123.856 129.675 123.856C129.675 123.856 136.188 119.679 138.762 119.836C141.337 119.993 144.711 116.139 144.711 116.139C147.203 109.791 149.458 112.666 149.458 112.666C149.458 112.967 149.458 112.666 149.336 113.605C148.461 120.574 163.471 142.595 163.685 142.984L165.114 177.79L166.561 221.836L168.025 269.907Z" fill="black"/>
<path d="M167.545 269.907C149.624 272.966 133.207 264.196 133.207 264.196L133.369 261.225C133.369 261.225 133.775 227.543 132.643 224.96C131.511 222.378 130.637 209.284 131.279 207.274C131.922 205.264 128.95 175.125 128.95 175.125L128.465 162.891L110.859 155.738L118.726 139.345C119.787 137.045 120.7 134.681 121.462 132.266C122.826 128.011 129.181 123.829 129.181 123.829C129.181 123.829 135.694 119.652 138.264 119.81C140.834 119.967 144.213 116.113 144.213 116.113C146.709 109.765 149.458 112.64 149.458 112.64C149.458 112.941 149.196 113.077 149.336 113.579C151.259 120.338 162.99 142.569 163.204 142.958L164.651 177.764L166.098 221.81L167.545 269.907Z" fill="white"/>
<path opacity="0.1" d="M162.715 143.95C160.787 143.146 150.577 131.493 150.577 131.493V128.841C150.205 127.967 147.998 128.5 146.206 129.112L146.975 113.002L147.85 113.728C149.764 120.483 162.492 143.561 162.715 143.95Z" fill="black"/>
<path d="M163.2 142.984C161.268 142.18 151.058 130.527 151.058 130.527V127.875C150.686 127.001 148.479 127.535 146.687 128.146L147.46 112.037L148.335 112.762C150.253 119.517 162.986 142.6 163.2 142.984Z" fill="white"/>
<path opacity="0.1" d="M133.692 201.1C133.933 201.1 146.154 199.815 146.154 199.815C146.154 199.815 153.553 214.361 153.068 217.9C152.583 221.439 151.705 224.572 148.728 224.017C145.751 223.462 132.709 224.454 132.709 224.454L133.692 201.1Z" fill="black"/>
<path d="M133.207 200.134C133.447 200.134 145.668 198.85 145.668 198.85C145.668 198.85 153.064 213.399 152.583 216.934C152.102 220.469 151.215 223.606 148.243 223.051C145.271 222.496 132.224 223.488 132.224 223.488L133.207 200.134Z" fill="white"/>
<path d="M142.416 193.305C142.416 193.305 153.632 199.33 153.873 201.17C154.113 203.009 148.164 200.366 146.879 200.047C146.033 199.843 145.172 199.709 144.305 199.645L135.733 199.876L142.416 193.305Z" fill="#CF6F80"/>
<path opacity="0.1" d="M159.585 144.701C160.237 144.701 160.765 144.173 160.765 143.522C160.765 142.87 160.237 142.342 159.585 142.342C158.934 142.342 158.405 142.87 158.405 143.522C158.405 144.173 158.934 144.701 159.585 144.701Z" fill="black"/>
<path d="M159.585 144.221C160.237 144.221 160.765 143.693 160.765 143.041C160.765 142.39 160.237 141.861 159.585 141.861C158.934 141.861 158.405 142.39 158.405 143.041C158.405 143.693 158.934 144.221 159.585 144.221Z" fill="#3F3D56"/>
<path opacity="0.1" d="M161.758 195.769C162.409 195.769 162.938 195.241 162.938 194.59C162.938 193.938 162.409 193.41 161.758 193.41C161.106 193.41 160.578 193.938 160.578 194.59C160.578 195.241 161.106 195.769 161.758 195.769Z" fill="black"/>
<path d="M161.758 195.284C162.409 195.284 162.938 194.756 162.938 194.105C162.938 193.453 162.409 192.925 161.758 192.925C161.106 192.925 160.578 193.453 160.578 194.105C160.578 194.756 161.106 195.284 161.758 195.284Z" fill="#3F3D56"/>
<path opacity="0.1" d="M160.761 170.235C161.413 170.235 161.941 169.707 161.941 169.056C161.941 168.404 161.413 167.876 160.761 167.876C160.109 167.876 159.581 168.404 159.581 169.056C159.581 169.707 160.109 170.235 160.761 170.235Z" fill="black"/>
<path d="M160.761 169.755C161.413 169.755 161.941 169.227 161.941 168.575C161.941 167.924 161.413 167.395 160.761 167.395C160.109 167.395 159.581 167.924 159.581 168.575C159.581 169.227 160.109 169.755 160.761 169.755Z" fill="#3F3D56"/>
<path d="M187.965 199.4C187.965 199.4 188.77 200.606 187.965 201.17C187.161 201.733 188.044 203.097 188.044 203.097C188.044 203.097 186.038 204.272 186.921 205.329C187.804 206.387 187.244 211.162 187.244 211.162L184.832 215.156C184.832 215.156 184.976 217.729 184.985 221.207C184.985 226.634 184.665 234.263 182.9 237.741L183.144 266.276C183.144 266.276 174.695 269.361 167.623 268.422L166.574 222.632C166.574 222.632 168.104 196.665 168.668 191.684C168.998 189.098 169.132 186.491 169.07 183.885C169.07 183.885 168.83 176.09 168.021 172.472C168.021 172.472 167.147 156.8 167.06 152.461C167.02 150.386 167.129 144.33 167.252 138.571C167.387 132.275 167.54 126.337 167.54 126.337L165.945 113.719C165.945 113.719 167.54 113.557 168.021 114.2C168.236 114.401 168.471 114.581 168.72 114.737C171.474 116.598 181.204 122.322 181.204 122.322C181.204 122.322 186.589 124.463 187.878 127.53C189.167 130.597 190.063 132.773 190.689 133.647C191.314 134.521 191.654 138.628 191.654 138.628C191.654 138.628 193.508 146.187 194.954 147.467C196.401 148.747 197.459 156.892 197.459 156.892L184.674 166.941C184.674 166.941 183.551 183.658 183.31 184.304C183.07 184.951 187.965 199.4 187.965 199.4Z" fill="white"/>
<path d="M188.451 199.4C188.451 199.4 189.25 200.606 188.451 201.17C187.651 201.733 188.525 203.097 188.525 203.097C188.525 203.097 186.532 204.285 187.406 205.342C188.28 206.4 187.729 211.175 187.729 211.175L185.317 215.169C185.317 215.169 185.461 217.742 185.474 221.22C185.474 226.647 185.155 234.276 183.389 237.754L183.629 266.289C183.629 266.289 175.167 269.374 168.104 268.435L167.059 222.645C167.059 222.645 168.589 196.678 169.153 191.697C169.483 189.111 169.616 186.504 169.551 183.898C169.551 183.898 169.31 176.103 168.506 172.486C168.506 172.486 167.632 156.813 167.54 152.474C167.501 150.399 167.615 144.343 167.733 138.584C167.868 132.288 168.021 126.35 168.021 126.35L165.914 113.562C165.914 113.562 168.021 113.562 168.506 114.213C168.72 114.416 168.954 114.596 169.206 114.75C171.959 116.611 181.693 122.335 181.693 122.335C181.693 122.335 187.074 124.476 188.363 127.543C189.653 130.611 190.549 132.786 191.178 133.66C191.807 134.534 192.14 138.641 192.14 138.641C192.14 138.641 193.993 146.2 195.44 147.48C196.886 148.76 197.931 156.887 197.931 156.887L185.146 166.937C185.146 166.937 184.023 183.653 183.778 184.3C183.533 184.947 188.451 199.4 188.451 199.4Z" fill="white"/>
<path opacity="0.1" d="M173.139 130.06L174.293 133.424L168.218 139.541C168.353 133.25 168.506 127.307 168.506 127.307L166.4 114.518C166.4 114.518 168.506 114.518 168.991 115.17C169.204 115.372 169.439 115.551 169.691 115.703L174.857 130.602L173.139 130.06Z" fill="black"/>
<path d="M172.654 129.094L173.812 132.459L167.737 138.576C167.872 132.28 168.025 126.342 168.025 126.342L165.914 113.553C165.914 113.553 168.025 113.553 168.506 114.204C168.721 114.406 168.955 114.586 169.206 114.741L174.376 129.636L172.654 129.094Z" fill="white"/>
<path opacity="0.1" d="M172.654 95.8049C172.658 97.3794 172.41 98.9443 171.92 100.441C171.837 100.454 171.753 100.45 171.672 100.43C171.591 100.409 171.515 100.373 171.448 100.323C171.334 96.3904 169.398 92.6984 167.016 89.5569C166.347 88.6084 165.536 87.7684 164.612 87.0664C163.677 86.3647 162.515 86.0361 161.351 86.1445C160.04 86.3236 158.882 87.2149 157.557 87.3285C155.809 87.4727 154.244 86.2624 152.509 86.2013C151.803 86.208 151.108 86.365 150.468 86.6618C149.828 86.9587 149.258 87.3886 148.798 87.9228C147.886 89.0008 147.209 90.2566 146.809 91.6104C146.122 93.6633 145.748 95.8078 145.699 97.9721C145.677 99.1955 145.559 100.729 144.423 101.175C144.508 100.275 144.406 99.3673 144.122 98.5092C143.839 97.651 143.38 96.8611 142.775 96.1894L142.749 96.1632C142.749 96.0409 142.749 95.9273 142.749 95.8049C142.715 93.8202 143.076 91.8486 143.813 90.0052C144.549 88.1617 145.645 86.4832 147.037 85.0677C148.429 83.6521 150.089 82.5279 151.921 81.7604C153.752 80.993 155.718 80.5977 157.704 80.5977C159.689 80.5977 161.655 80.993 163.486 81.7604C165.318 82.5279 166.978 83.6521 168.37 85.0677C169.762 86.4832 170.858 88.1617 171.594 90.0052C172.331 91.8486 172.693 93.8202 172.659 95.8049H172.654Z" fill="black"/>
<path d="M163.895 72.0667C161.624 70.9987 159.04 70.7967 156.631 71.4987C155.42 71.857 154.279 72.4381 153.051 72.7308C150.428 73.3644 147.369 72.6784 145.118 74.212C143.868 75.0859 143.116 76.4665 142.416 77.8079L140.668 81.1373C139.715 82.9593 138.754 84.8118 138.356 86.8173C137.958 88.8228 138.199 91.0686 139.47 92.6809C140.397 93.8562 141.765 94.5946 142.77 95.7001C143.373 96.3724 143.83 97.1619 144.112 98.019C144.395 98.8761 144.498 99.7824 144.414 100.681C145.555 100.244 145.664 98.7061 145.69 97.4827C145.739 95.3185 146.113 93.1739 146.8 91.1211C147.199 89.7669 147.877 88.5109 148.789 87.4334C149.25 86.8996 149.819 86.4701 150.459 86.1733C151.099 85.8764 151.795 85.7192 152.5 85.7119C154.248 85.7731 155.818 86.979 157.548 86.8348C158.86 86.7256 160.022 85.8299 161.342 85.6551C162.506 85.545 163.669 85.8739 164.603 86.577C165.527 87.2779 166.337 88.1181 167.003 89.0675C169.389 92.209 171.325 95.8923 171.439 99.8334C171.933 100.196 172.645 99.7242 172.89 99.1649C173.135 98.6056 173.144 97.9502 173.454 97.4172C173.812 96.8011 174.499 96.4734 175.036 96.0103C176.4 94.8349 176.741 92.8557 176.689 91.0599C176.636 89.2641 176.286 87.4421 176.627 85.677C176.833 84.5934 177.296 83.5797 177.55 82.5092C177.803 81.4388 177.834 80.2372 177.235 79.3153C176.361 77.9608 174.521 77.6943 172.916 77.5676C171.094 77.4103 169.463 77.6113 168.301 76.0777C167.755 75.2774 167.141 74.526 166.465 73.8319C166.233 73.6047 163.895 72.1628 163.895 72.0667Z" fill="#512E4E"/>
<path opacity="0.1" d="M116.388 164.206L111.82 155.764L110.374 168.789C110.374 168.789 111.178 174.574 111.016 175.461C110.854 176.348 114.312 184.3 114.312 184.3C114.312 184.3 125.733 204.635 130.397 205.683L146.154 194.428L141.975 189.124C141.975 189.124 140.528 188.56 140.165 189.124C140.165 189.124 132.407 175.78 131.603 174.814C130.799 173.849 130.956 171.922 130.956 171.922C130.956 171.922 129.75 170.637 130.152 169.431C130.554 168.226 127.822 164.044 127.822 164.044L130.313 161.715L116.388 164.206Z" fill="black"/>
<path d="M112.061 154.803L110.854 155.764L109.408 168.789C109.408 168.789 110.212 174.574 110.05 175.461C109.888 176.348 113.35 184.3 113.35 184.3C113.35 184.3 124.767 204.635 129.431 205.683L145.192 194.428L141.009 189.124C141.009 189.124 139.562 188.56 139.2 189.124C139.2 189.124 131.441 175.78 130.637 174.814C129.833 173.849 129.994 171.922 129.994 171.922C129.994 171.922 128.788 170.637 129.19 169.431C129.592 168.226 126.856 164.044 126.856 164.044L129.348 161.715L112.061 154.803Z" fill="white"/>
<path opacity="0.1" d="M186.921 205.827C187.795 206.889 187.244 211.656 187.244 211.656L184.832 215.65C184.832 215.65 184.976 218.227 184.985 221.701L180.928 222.968C180.562 223.083 180.173 223.108 179.795 223.041C179.417 222.975 179.06 222.82 178.754 222.587C178.448 222.355 178.202 222.053 178.037 221.707C177.871 221.36 177.791 220.979 177.803 220.596L178.502 198.046L187.965 201.664C187.161 202.223 188.044 203.595 188.044 203.595C188.044 203.595 186.038 204.766 186.921 205.827Z" fill="black"/>
<path d="M187.406 205.342C188.28 206.404 187.729 211.175 187.729 211.175L185.317 215.169C185.317 215.169 185.461 217.742 185.474 221.22L181.344 222.509C180.985 222.621 180.604 222.645 180.234 222.58C179.864 222.515 179.514 222.362 179.215 222.135C178.916 221.907 178.675 221.612 178.513 221.273C178.351 220.933 178.273 220.56 178.284 220.185L178.988 197.565L188.455 201.183C187.646 201.742 188.529 203.11 188.529 203.11C188.529 203.11 186.532 204.285 187.406 205.342Z" fill="white"/>
<path d="M190.54 194.594C190.54 194.594 189.897 198.697 188.289 198.937C186.68 199.177 185.959 205.574 184.355 205.347C182.751 205.12 183.813 199.4 183.87 198.29C183.927 197.181 182.122 192.584 183.472 191.54C184.823 190.496 189.097 191.54 189.097 191.54L190.54 194.594Z" fill="#CF6F80"/>
<path opacity="0.1" d="M193.962 163L196.996 156.883C196.996 156.883 198.202 161.545 198.202 164.035C198.202 166.526 199.889 166.771 199.889 166.771C199.889 166.771 201.738 168.955 200.763 170.546C199.789 172.136 199.395 176.095 199.395 176.095C199.395 176.095 199.714 183.649 198.268 184.693C196.821 185.738 196.519 188.232 196.519 188.232C196.519 188.232 193.862 192.973 193.945 194.1C194.028 195.228 190.247 202.861 190.247 202.861C190.247 202.861 192.096 193.375 181.322 189.277C181.322 189.277 181.239 186.056 182.043 185.174C182.847 184.291 184.102 183.889 183.315 179.428C182.528 174.967 183.087 169.637 183.087 168.566C183.087 167.496 185.5 160.82 185.5 160.82L193.962 163Z" fill="black"/>
<path d="M195.274 156.009L197.922 156.883C197.922 156.883 199.133 161.545 199.133 164.035C199.133 166.526 200.82 166.771 200.82 166.771C200.82 166.771 202.669 168.955 201.694 170.546C200.72 172.136 200.331 176.095 200.331 176.095C200.331 176.095 200.65 183.649 199.203 184.693C197.756 185.738 197.433 188.232 197.433 188.232C197.433 188.232 194.78 192.973 194.863 194.1C194.946 195.228 191.161 202.861 191.161 202.861C191.161 202.861 193.014 193.375 182.235 189.277C182.235 189.277 182.157 186.056 182.961 185.174C183.765 184.291 185.02 183.889 184.233 179.428C183.446 174.967 184.005 169.637 184.005 168.566C184.005 167.496 186.418 160.82 186.418 160.82L195.274 156.009Z" fill="white"/>
<path opacity="0.1" d="M136.769 314.557C136.769 314.557 140.992 311.905 143.763 313.831C146.534 315.758 136.769 314.557 136.769 314.557Z" fill="black"/>
<path opacity="0.1" d="M169.577 306.356C169.577 306.356 173.314 305.875 176.453 309.252C179.591 312.63 169.577 306.356 169.577 306.356Z" fill="black"/>
<g opacity="0.1">
<path d="M175.045 95.0534C174.507 95.5165 173.817 95.8486 173.458 96.4647C173.152 96.9934 173.144 97.6444 172.899 98.2124C172.654 98.7804 171.942 99.2435 171.448 98.8853C171.334 94.9529 169.394 91.2609 167.011 88.115C166.345 87.1656 165.536 86.3254 164.612 85.6245C163.676 84.9214 162.512 84.5927 161.347 84.7026C160.035 84.8817 158.882 85.7731 157.557 85.8823C155.809 86.0309 154.24 84.8206 152.504 84.7594C151.799 84.7664 151.104 84.924 150.464 85.2217C149.825 85.5194 149.257 85.9502 148.798 86.4853C147.885 87.5611 147.208 88.8157 146.809 90.1686C146.122 92.2215 145.748 94.366 145.699 96.5302C145.673 97.7492 145.559 99.2697 144.431 99.7241C144.458 100.047 144.458 100.371 144.431 100.694C145.568 100.257 145.681 98.7192 145.708 97.4958C145.756 95.3316 146.131 93.187 146.818 91.1342C147.217 89.78 147.894 88.524 148.807 87.4465C149.267 86.9129 149.835 86.4833 150.474 86.1865C151.113 85.8896 151.808 85.7323 152.513 85.725C154.262 85.7862 155.835 86.9921 157.566 86.8479C158.877 86.7387 160.04 85.843 161.355 85.6682C162.521 85.5583 163.685 85.8871 164.621 86.5901C165.545 87.291 166.354 88.1312 167.02 89.0806C169.402 92.2221 171.343 95.9054 171.457 99.8465C171.95 100.209 172.663 99.7373 172.908 99.178C173.152 98.6187 173.161 97.9633 173.467 97.4303C173.826 96.8142 174.516 96.4865 175.054 96.0234C176.418 94.848 176.758 92.8688 176.706 91.073C176.706 91.0162 176.706 90.9594 176.706 90.907C176.623 92.4624 176.208 94.0485 175.045 95.0534Z" fill="black"/>
<path d="M142.779 94.7432C141.774 93.6378 140.402 92.8994 139.479 91.7284C138.703 90.6918 138.259 89.444 138.207 88.15C138.07 89.767 138.521 91.3792 139.479 92.6896C140.402 93.865 141.774 94.6034 142.779 95.7088C143.744 96.7901 144.324 98.1607 144.427 99.6062C144.494 98.7265 144.383 97.8423 144.099 97.0067C143.816 96.171 143.367 95.4012 142.779 94.7432Z" fill="black"/>
<path d="M177.558 81.5524C177.3 82.6228 176.842 83.6409 176.632 84.7201C176.507 85.4412 176.462 86.1738 176.496 86.9047C176.511 86.4883 176.556 86.0736 176.632 85.6639C176.842 84.5803 177.3 83.5666 177.558 82.4961C177.709 81.9057 177.757 81.294 177.703 80.6873C177.675 80.9787 177.627 81.2678 177.558 81.5524Z" fill="black"/>
</g>
<path opacity="0.1" d="M58.0147 332.322C81.5364 332.322 100.605 329.261 100.605 325.484C100.605 321.708 81.5364 318.646 58.0147 318.646C34.4929 318.646 15.4248 321.708 15.4248 325.484C15.4248 329.261 34.4929 332.322 58.0147 332.322Z" fill="#AA0113"/>
<path d="M59.3871 194.494H56.6466V256.174H59.3871V194.494Z" fill="#535461"/>
<path d="M76.6084 255.987L76.4379 258.765L76.1932 262.698L76.0926 264.332L75.8522 268.264L75.7473 269.898L75.5026 273.831L72.7402 318.428C72.6201 320.347 71.7731 322.148 70.3716 323.464C68.9701 324.781 67.1193 325.514 65.196 325.515H50.8333C48.9105 325.514 47.0602 324.781 45.6594 323.464C44.2586 322.147 43.4125 320.346 43.2935 318.428L40.5443 273.8L40.2995 269.868L40.199 268.234L39.9542 264.301L39.8537 262.667L39.6089 258.735L39.4341 255.956C39.4037 255.421 39.483 254.886 39.667 254.383C39.8511 253.88 40.136 253.419 40.5044 253.03C40.8727 252.641 41.3167 252.331 41.8091 252.12C42.3015 251.909 42.832 251.8 43.3679 251.801H72.7445C73.2784 251.805 73.8057 251.919 74.2938 252.136C74.7819 252.352 75.2206 252.666 75.5826 253.058C75.9447 253.45 76.2225 253.912 76.3989 254.416C76.5754 254.92 76.6466 255.454 76.6084 255.987Z" fill="#3F3D56"/>
<path d="M76.438 258.765L76.1932 262.685H39.8362L39.5914 258.765H76.438Z" fill="#9D9CB5"/>
<path d="M76.0927 264.319L75.8523 268.242H40.1815L39.9368 264.319H76.0927Z" fill="#9D9CB5"/>
<path d="M75.7474 269.881L75.507 273.8H40.5269L40.2821 269.881H75.7474Z" fill="#9D9CB5"/>
<path d="M35.4085 217.611C51.3666 229.155 58.0278 247.209 58.0278 247.209C58.0278 247.209 38.7959 246.549 22.8335 235.005C6.87101 223.462 0.2229 205.412 0.2229 205.412C0.2229 205.412 19.446 206.068 35.4085 217.611Z" fill="#AA0113"/>
<path d="M0.209839 205.412C0.209839 205.412 20.176 216.488 26.5794 225.66C32.9827 234.831 58.0279 247.209 58.0279 247.209" stroke="#535461" stroke-width="2" stroke-miterlimit="10"/>
<path d="M45.7107 194.358C54.3956 200.637 58.0278 210.463 58.0278 210.463C58.0278 210.463 47.5596 210.105 38.8703 203.826C30.181 197.548 26.5575 187.717 26.5575 187.717C26.5575 187.717 37.0214 188.075 45.7107 194.358Z" fill="#AA0113"/>
<path d="M26.5575 187.717C26.5575 187.717 37.4235 193.746 40.9071 198.736C44.3907 203.726 58.0278 210.463 58.0278 210.463" stroke="#535461" stroke-width="2" stroke-miterlimit="10"/>
<path d="M70.6378 209.965C60.6591 220.928 58.548 235.254 58.548 235.254C58.548 235.254 72.6178 231.803 82.5878 220.836C92.5578 209.869 94.6777 195.547 94.6777 195.547C94.6777 195.547 80.6166 199.003 70.6378 209.965Z" fill="#AA0113"/>
<path d="M94.6864 195.551C94.6864 195.551 81.6874 206.789 78.383 214.531C75.0787 222.273 58.548 235.254 58.548 235.254" stroke="#535461" stroke-width="2" stroke-miterlimit="10"/>
<path d="M436.944 206.107C436.944 206.107 429.728 170.218 432.49 165.753C432.49 165.753 432.591 161.602 432.424 156.311C432.424 156.11 432.424 155.909 432.424 155.703C432.91 156.027 433.417 156.319 433.941 156.577C436.486 157.884 439.408 158.261 442.202 157.643L440.017 155.209C439.492 154.628 438.946 153.999 438.832 153.23C438.719 152.461 439.033 151.775 439.304 151.089C441.38 145.846 441.49 139.253 437.49 135.251C434.112 131.886 433.29 127.543 429.623 124.472C426.943 122.222 425.47 118.923 424.08 115.733C422.905 113.037 421.72 110.32 421.047 107.462C420.523 105.229 420.313 102.918 419.592 100.738C418.87 98.5576 417.52 96.4385 415.409 95.4641C414.657 95.1189 413.822 94.9223 413.136 94.4635C412.235 93.8562 411.693 92.8688 411.042 92.0037C407.733 87.6344 396.653 90.2079 391.408 91.9818C389.982 92.4285 388.662 93.1598 387.527 94.1315L387.575 94.0528C387.614 93.9873 387.662 93.9218 387.706 93.8562C387.132 94.3203 386.636 94.8735 386.237 95.4947C385.472 96.705 385.153 98.1163 384.515 99.427C383.746 100.978 379.467 105.308 381.307 107.051C381.436 107.168 381.584 107.263 381.744 107.331C382.435 107.618 383.195 107.694 383.93 107.55L383.851 107.737C383.222 109.276 382.9 110.921 382.902 112.583C382.902 119.762 388.825 125.581 396.137 125.581C397.512 125.583 398.879 125.372 400.189 124.957C400.22 125.123 400.246 125.289 400.277 125.455C400.277 125.52 400.299 125.586 400.307 125.651L400.076 125.975C400.064 125.955 400.051 125.936 400.036 125.918L393.174 135.504C392.125 136.242 386.084 140.612 385.743 143.889C385.385 147.476 385.027 151.675 385.027 151.675L384.979 152.575C384.679 152.825 384.328 153.008 383.951 153.11C383.573 153.211 383.178 153.23 382.793 153.165C380.651 152.815 380.651 161.029 380.651 161.029C380.651 161.029 379.226 162.34 378.247 161.204C377.268 160.068 374.681 163.917 374.681 163.917L358.465 164.617L358.093 164.638L357.219 161.934C357.125 161.648 356.922 161.412 356.654 161.275C356.387 161.139 356.076 161.113 355.79 161.204C355.722 161.226 355.656 161.254 355.593 161.287L355.532 161.322L355.418 161.401L355.361 161.453C355.33 161.482 355.301 161.512 355.274 161.545L355.222 161.606L355.195 161.632C355.094 161.772 355.028 161.933 355 162.103C354.973 162.273 354.986 162.447 355.038 162.611L355.79 164.931C352.66 165.56 349.461 167.334 352.07 172.219L338.844 169.777L343.123 173.368L365.213 177.925C364.921 178.45 365.113 179.21 366.026 180.28C369.96 184.899 377.128 186.153 380.013 186.476C380.775 188.18 381.727 189.792 382.85 191.282L382.601 195.883C382.601 195.883 375.297 230.951 373.96 232.729C374.635 231.964 375.253 231.151 375.808 230.295C373.689 237.5 370.725 247.362 369.947 248.839C368.697 251.198 367.539 260.745 368.964 261.356C369.401 261.544 370.651 261.453 372.434 261.317V262.108L372.355 292.077C372.355 292.077 372.714 310.458 371.73 312.21C370.747 313.962 370.485 317.637 370.485 317.637C370.485 317.637 366.551 324.886 363.434 327.8C363.413 327.823 363.39 327.843 363.365 327.861L363.268 327.179C363.268 327.179 359.523 331.907 351.235 331.64C351.235 331.64 346.248 334.882 353.644 335.057C361.039 335.232 370.485 334.795 370.485 334.795C370.485 334.795 377.08 324.746 382.605 326.057V333.672H384.297V325.934C385.081 325.418 385.753 324.748 386.27 323.965C386.788 323.181 387.141 322.301 387.308 321.377C387.453 320.425 387.347 319.451 387 318.553C386.654 317.654 386.079 316.861 385.333 316.252C384.997 315.949 384.728 315.58 384.542 315.168C384.357 314.756 384.258 314.31 384.253 313.858L384.192 313.91C384.192 313.757 384.152 313.6 384.135 313.438C383.65 309.506 383.042 301.392 385.188 295.389C388.13 287.157 389.022 275.692 386.88 268.867C386.189 266.686 385.621 264.467 385.18 262.222C385.127 261.938 385.079 261.667 385.035 261.413C386.499 261.611 387.949 261.903 389.376 262.287C394.337 263.655 405.19 263.908 414.456 263.834C414.478 264.087 414.504 264.354 414.534 264.62C414.7 266.473 415.045 268.305 415.566 270.091C416.729 273.586 417.262 288.996 417.262 288.996C417.262 288.996 418.761 301.667 417.944 306.823C417.507 309.689 417.07 312.569 416.82 315.461V315.518C416.82 315.518 414.364 322.509 412.568 326.306C412.524 326.402 412.476 326.498 412.432 326.59C411.953 326.633 411.482 326.737 411.029 326.9C411.029 326.9 408.621 331.706 406.221 332.501C403.821 333.296 404.617 335.914 410.05 334.952C415.483 333.991 423.687 333.205 423.687 333.205L424.041 328.302L425.711 326.214L425.274 331.103L427.053 330.754L426.817 324.807L429.548 321.39C429.548 321.39 432.848 318.454 427.944 312.678V312.805C427.892 312.722 427.844 312.634 427.787 312.551V312.525C426.974 311.267 426.327 308.92 427.512 304.756C429.653 297.232 430.899 290.403 430.899 290.403C430.899 290.403 435.681 272.109 429.933 263.454H430.187C429.598 262.236 429.181 260.942 428.95 259.609C428.92 259.451 428.894 259.29 428.871 259.124C433.124 258.879 437.298 258.11 440.703 256.45C440.69 256.432 438.64 213.019 436.944 206.107ZM382.95 175.828V175.915L382.076 175.959L382.95 175.828ZM379.952 176.243C379.808 176.275 379.674 176.339 379.559 176.431C379.183 176.963 378.947 177.58 378.872 178.227L377.509 177.921C377.509 177.921 376.551 177.716 375.175 177.484L374.523 176.829C376.315 176.68 378.177 176.462 379.952 176.243Z" fill="url(#paint1_linear_1_270)"/>
<path d="M425.073 324.868L424.552 331.059L426.296 330.71L426.034 323.994L425.073 324.868Z" fill="#1D2366"/>
<path d="M385.285 295.472C383.182 301.458 383.777 309.536 384.249 313.46C384.423 314.911 384.585 315.793 384.585 315.793C384.585 315.793 381.443 322.95 381.18 323.221C380.918 323.492 371.932 328.975 371.932 328.975L365.651 332.641C365.651 332.641 359.278 329.849 362.333 328.888C362.957 328.637 363.52 328.254 363.981 327.765C367.04 324.859 370.883 317.637 370.883 317.637C370.883 317.637 371.145 313.971 372.106 312.228C373.068 310.484 372.718 292.164 372.718 292.164L372.793 262.3V258.407L384.747 258.495C384.822 259.816 384.995 261.131 385.263 262.427C385.692 264.665 386.248 266.876 386.928 269.051C389.035 275.862 388.161 287.271 385.285 295.472Z" fill="#FFB0B1"/>
<path opacity="0.1" d="M384.585 315.793C384.585 315.793 381.443 322.95 381.18 323.221C380.918 323.492 371.932 328.975 371.932 328.975L365.651 332.641C365.651 332.641 359.278 329.849 362.333 328.888C362.957 328.637 363.52 328.254 363.981 327.765L364.252 329.674L366.346 329.587L384.266 313.469C384.423 314.911 384.585 315.793 384.585 315.793Z" fill="black"/>
<path d="M384.367 313.875L366.346 330.102L364.252 330.19L363.815 327.131C363.815 327.131 360.152 331.841 352.013 331.579C352.013 331.579 347.127 334.808 354.369 334.983C361.612 335.158 370.861 334.721 370.861 334.721C370.861 334.721 377.321 324.671 382.728 325.982V333.572H384.389V325.912C385.161 325.393 385.82 324.722 386.326 323.941C386.832 323.16 387.175 322.285 387.335 321.368C387.478 320.424 387.377 319.458 387.039 318.564C386.701 317.671 386.139 316.879 385.407 316.265C385.08 315.958 384.819 315.588 384.64 315.177C384.461 314.766 384.368 314.323 384.367 313.875Z" fill="#1D2366"/>
<path d="M426.734 304.804C425.571 308.955 426.205 311.293 427 312.547V312.573C428.021 314.121 428.73 315.853 429.09 317.672L429.159 318.065L420.96 330.015L416.51 331.763C416.51 331.763 409.355 329.32 410.662 328.621C410.99 328.451 411.501 327.542 412.087 326.288C413.835 322.509 416.248 315.535 416.248 315.535V315.479C416.501 312.599 416.904 309.729 417.349 306.871C418.149 301.728 416.681 289.106 416.681 289.106C416.681 289.106 416.156 273.756 415.02 270.265C414.507 268.49 414.166 266.67 414.001 264.83C413.765 262.645 413.713 260.845 413.713 260.845C413.713 260.845 418.425 254.291 427.061 261.37C427.752 261.934 428.36 262.593 428.867 263.327C434.833 271.812 430.029 290.504 430.029 290.504C430.029 290.504 428.827 297.302 426.734 304.804Z" fill="#FFB0B1"/>
<path opacity="0.1" d="M429.173 318.065L420.973 330.015L416.523 331.763C416.523 331.763 409.368 329.32 410.675 328.621C411.003 328.451 411.514 327.542 412.1 326.288C415.129 326.262 416.698 329.146 416.698 329.146L420.536 328.534C420.536 328.534 425.597 318.589 426.734 317.982C427.87 317.375 426.908 313.442 426.908 313.442V312.442C426.939 312.477 426.965 312.516 427 312.551V312.577C428.021 314.126 428.73 315.857 429.089 317.676L429.173 318.065Z" fill="black"/>
<path d="M416.96 329.403C416.96 329.403 414.775 325.392 410.588 326.874C410.588 326.874 408.232 331.68 405.876 332.458C403.52 333.235 404.307 335.857 409.63 334.9C414.954 333.943 422.979 333.152 422.979 333.152L423.329 328.263L428.74 321.373C428.74 321.373 431.966 318.45 427.166 312.695V313.696C427.166 313.696 428.128 317.628 426.991 318.236C425.855 318.843 420.811 328.792 420.811 328.792L416.96 329.403Z" fill="#1D2366"/>
<path opacity="0.1" d="M384.76 258.486C384.835 259.807 385.008 261.122 385.276 262.418C380.354 261.697 375.787 262.056 372.793 262.291V258.398L384.76 258.486Z" fill="black"/>
<path opacity="0.1" d="M429.352 264.415C429.352 264.415 422.358 264.756 414.019 264.826C413.783 262.641 413.73 260.841 413.73 260.841C413.73 260.841 418.442 254.287 427.079 261.365C427.77 261.93 428.377 262.589 428.884 263.323C429.02 263.695 429.176 264.06 429.352 264.415Z" fill="black"/>
<path d="M429.352 263.628C429.352 263.628 398.721 265.11 389.384 262.492C380.048 259.875 370.795 262.143 369.401 261.536C368.006 260.928 369.138 251.416 370.362 249.061C371.586 246.706 378.3 222.889 378.3 222.889L384.76 189.22L391.565 187.345L392.046 187.21L403.904 183.942L412.594 181.543C412.594 181.543 429.872 248.974 428.39 253.946C427.852 255.85 427.765 257.853 428.137 259.797C428.363 261.124 428.772 262.413 429.352 263.628Z" fill="#1D2366"/>
<path d="M362.241 166.194C362.241 166.194 356.122 172.748 360.755 176.4C365.388 180.053 368.435 176.75 368.435 176.75L362.241 166.194Z" fill="#C7DAF5"/>
<path opacity="0.1" d="M362.241 166.194C362.241 166.194 356.122 172.748 360.755 176.4C365.388 180.053 368.435 176.75 368.435 176.75L362.241 166.194Z" fill="black"/>
<path d="M411.68 123.104C411.68 123.104 410.963 123.786 409.884 124.791C408.345 126.228 406.068 128.33 404.049 130.091C401.251 132.524 398.944 134.311 399.77 132.786C400.596 131.262 400.438 128.605 400.028 126.119C399.997 125.953 399.971 125.787 399.94 125.625C399.6 123.799 399.149 121.996 398.589 120.225C398.589 120.225 403.109 114.387 405.609 112.085C406.54 111.211 407.191 110.853 407.231 111.46C407.274 112.277 407.886 114.082 408.647 115.995C408.669 116.056 408.691 116.113 408.717 116.174C409.224 117.485 409.796 118.831 410.299 119.993C411.068 121.776 411.68 123.104 411.68 123.104Z" fill="#FFB0B1"/>
<path opacity="0.1" d="M408.717 116.174C408.292 118.458 407.262 120.586 405.733 122.335C404.205 124.084 402.234 125.391 400.028 126.119C399.68 124.124 399.2 122.155 398.589 120.225C398.589 120.225 407.1 109.236 407.231 111.46C407.261 112.303 407.926 114.173 408.717 116.174Z" fill="black"/>
<path opacity="0.1" d="M399.18 129.055L400.281 127.504C400.281 127.504 401.011 131.952 403.695 129.99C406.378 128.028 406.51 144.754 406.51 144.754L403.629 187.804L382.815 186.559L383.405 165.757L385.761 155.271L391.587 140.026L395.053 134.988L399.18 129.055Z" fill="black"/>
<path d="M406.51 145.02L403.887 183.946L403.612 188.071L392.007 187.376L391.57 187.35L382.828 186.825L383.418 166.019L385.774 155.533L391.6 140.288L395.067 135.251L399.193 129.295L400.294 127.749C400.294 127.749 401.024 132.197 403.708 130.235L403.765 130.195C406.387 128.535 406.51 145.02 406.51 145.02Z" fill="#1D2366"/>
<path d="M386.067 151.889C386.067 151.889 385.022 154.073 382.924 153.72C380.826 153.366 380.831 161.584 380.831 161.584C380.831 161.584 379.436 162.895 378.475 161.759C377.513 160.623 374.978 164.464 374.978 164.464L359.094 165.163C359.094 165.163 366.162 168.392 364.776 178.161C364.776 178.161 388.773 176.676 389.559 174.408C390.346 172.14 386.067 151.889 386.067 151.889Z" fill="white"/>
<path opacity="0.03" d="M386.067 151.889C386.067 151.889 385.022 154.073 382.924 153.72C380.826 153.366 380.831 161.584 380.831 161.584C380.831 161.584 379.436 162.895 378.475 161.759C377.513 160.623 374.978 164.464 374.978 164.464L359.094 165.163C359.094 165.163 366.162 168.392 364.776 178.161C364.776 178.161 388.773 176.676 389.559 174.408C390.346 172.14 386.067 151.889 386.067 151.889Z" fill="black"/>
<path d="M339.906 170.297L344.093 173.871L378.562 181.11L374.287 176.75L339.906 170.297Z" fill="white"/>
<path d="M399.245 130.431C398.673 131.305 397.033 135.779 395.665 139.685C394.525 142.941 393.572 145.802 393.572 145.802C393.572 145.802 391.347 160.282 390.21 162.899C389.074 165.517 389.69 175.723 389.69 175.723L385.455 200.929C385.455 200.929 383.536 213.928 380.573 221.692C377.649 229.334 374.392 232.917 374.292 233.03C375.603 231.257 382.749 196.329 382.749 196.329L385.11 152.278C385.11 152.278 385.455 148.092 385.805 144.514C386.154 140.935 393.235 136.05 393.235 136.05L400.062 126.346C400.749 127.264 400.29 128.863 399.245 130.431Z" fill="white"/>
<path d="M381.443 187.044C381.443 187.044 371.39 186.607 366.52 180.761C361.651 174.915 377.775 178.428 377.775 178.428L381.967 179.389L381.443 187.044Z" fill="#FFB0B1"/>
<path opacity="0.1" d="M428.39 253.951C427.852 255.854 427.765 257.858 428.137 259.801C417.17 260.579 405.439 257.616 405.439 257.616C403.253 259.626 397.497 262.589 397.497 262.589L394.359 223.702C392.352 218.459 391.566 190.989 391.566 190.989C391.566 190.989 391.745 189.552 392.003 187.398C392.003 187.345 392.003 187.289 392.024 187.236C392.807 181.22 394.359 169.925 395.119 168.4C396.168 166.303 391.893 160.723 391.893 160.723L393.838 144.142L394.074 142.141C398.174 140.31 401.317 134.464 401.317 134.464L403.73 130.239C406.352 128.557 406.488 145.042 406.488 145.042L403.865 183.968L412.555 181.569C412.555 181.569 429.872 248.978 428.39 253.951Z" fill="black"/>
<path d="M439.645 256.638C427.691 262.571 405.963 257.075 405.963 257.075C403.778 259.084 398.021 262.047 398.021 262.047L394.879 223.16C392.877 217.917 392.09 190.448 392.09 190.448C392.09 190.448 394.616 169.951 395.665 167.858C395.971 167.247 395.823 166.338 395.46 165.359C393.676 160.701 393.02 155.687 393.545 150.727L394.385 143.6L394.616 141.604C398.721 139.768 401.863 133.922 401.863 133.922L404.049 130.095L408.07 123.043L409.976 119.705L410.299 119.998L412.769 122.235C412.769 122.235 413.818 123.108 415.391 124.419C418.814 127.303 424.727 132.38 427.778 135.487C430.462 138.222 431.31 148.861 431.555 156.87C431.716 162.144 431.62 166.277 431.62 166.277C428.915 170.729 435.991 206.474 435.991 206.474C437.639 213.382 439.645 256.638 439.645 256.638Z" fill="white"/>
<path opacity="0.03" d="M416.698 133.835C416.698 133.835 408.494 149.446 409.447 155.38C410.4 161.313 413.11 168.029 411.803 169.597C411.354 170.192 410.773 170.674 410.107 171.007C409.44 171.34 408.706 171.514 407.961 171.516C406.649 171.603 403.153 174.045 403.153 174.308C403.153 174.57 399.923 174.57 397.033 175.793C394.144 177.016 389.878 177.711 389.878 177.711C389.878 177.711 381.574 177.449 380.8 178.235C380.026 179.022 379.231 183.728 380.887 187.481C382.544 191.234 384.384 194.035 385.774 194.546C387.164 195.057 395.984 192.104 403.14 191.404C410.295 190.705 418.062 185.038 418.062 185.038C418.062 185.038 426.616 181.98 428.115 176.837C429.614 171.695 426.283 143.43 426.283 143.43C426.283 143.43 423.766 130.257 416.698 133.835Z" fill="black"/>
<path opacity="0.03" d="M415.649 132.524C415.649 132.524 407.445 148.14 408.406 154.069C409.368 159.998 412.069 166.718 410.758 168.291C410.311 168.886 409.731 169.369 409.065 169.702C408.399 170.035 407.665 170.208 406.92 170.209C405.609 170.297 402.112 172.739 402.112 173.001C402.112 173.263 398.882 173.263 395.993 174.482C393.104 175.701 388.838 176.4 388.838 176.4C388.838 176.4 380.533 176.138 379.764 176.925C378.995 177.711 378.191 182.421 379.852 186.17C381.512 189.919 383.348 192.724 384.738 193.235C386.128 193.746 394.949 190.793 402.104 190.098C409.259 189.403 417.026 183.728 417.026 183.728C417.026 183.728 425.575 180.669 427.057 175.531C428.539 170.393 425.226 142.119 425.226 142.119C425.226 142.119 422.717 128.95 415.649 132.524Z" fill="black"/>
<path d="M416.44 133.049C416.44 133.049 408.236 148.664 409.198 154.593C410.159 160.522 412.86 167.242 411.554 168.811C411.106 169.407 410.526 169.891 409.859 170.225C409.193 170.559 408.457 170.733 407.712 170.733C406.4 170.821 402.904 173.263 402.904 173.521C402.904 173.779 399.678 173.783 396.784 175.007C393.891 176.23 389.629 176.925 389.629 176.925C389.629 176.925 381.325 176.663 380.551 177.449C379.777 178.236 378.982 182.946 380.638 186.694C382.295 190.443 384.135 193.248 385.525 193.76C386.915 194.271 395.735 191.317 402.89 190.618C410.046 189.919 417.813 184.252 417.813 184.252C417.813 184.252 426.366 181.193 427.866 176.051C429.365 170.908 426.056 142.643 426.056 142.643C426.056 142.643 423.504 129.492 416.44 133.049Z" fill="white"/>
<path opacity="0.1" d="M416.261 174.932C416.261 174.932 409.705 173.622 411.986 175.806C414.268 177.991 414.255 179.905 417.048 179.817C419.841 179.73 416.261 174.932 416.261 174.932Z" fill="black"/>
<path opacity="0.1" d="M427.341 221.937C427.341 221.937 424.378 223.942 430.047 228.565C435.716 233.188 427.341 221.937 427.341 221.937Z" fill="black"/>
<path opacity="0.1" d="M421.685 238.422C421.685 238.684 420.636 248.035 424.561 250.372C428.486 252.71 421.685 238.422 421.685 238.422Z" fill="black"/>
<path d="M359.365 165.141C356.201 165.25 349.365 166.216 352.909 172.826C356.043 178.677 361.31 174.766 364.274 171.8C363.551 169.034 361.794 166.65 359.365 165.141Z" fill="#FFB0B1"/>
<path opacity="0.1" d="M415.391 124.686C412.034 126.98 409.22 128.915 408.669 129.317C407.165 130.431 404.298 136.972 402.449 140.31C400.976 142.997 396.19 143.688 394.385 143.858L394.616 141.861C398.721 140.026 401.863 134.18 401.863 134.18L409.976 119.963L412.769 122.501C412.769 122.501 413.818 123.375 415.391 124.686Z" fill="black"/>
<path d="M415.391 124.424C412.034 126.717 409.22 128.653 408.669 129.059C407.165 130.169 404.298 136.71 402.449 140.048C400.976 142.735 396.19 143.426 394.385 143.596L394.616 141.599C398.721 139.764 401.863 133.918 401.863 133.918L409.976 119.7L412.769 122.23C412.769 122.23 413.818 123.095 415.391 124.424Z" fill="#DCE7FF"/>
<path d="M408.931 113.291C408.933 115.914 408.137 118.475 406.649 120.635C404.892 123.19 402.277 125.03 399.279 125.822C396.281 126.614 393.098 126.306 390.308 124.952C387.518 123.599 385.305 121.291 384.072 118.447C382.839 115.602 382.666 112.41 383.586 109.45C384.506 106.489 386.457 103.956 389.085 102.311C391.713 100.665 394.844 100.015 397.91 100.48C400.976 100.945 403.774 102.493 405.796 104.843C407.818 107.194 408.93 110.191 408.931 113.291Z" fill="#FFB0B1"/>
<path opacity="0.1" d="M431.555 156.874C429.78 155.783 428.334 154.23 427.372 152.383C426.642 150.941 426.157 149.276 424.911 148.254C423.788 147.336 422.288 147.113 420.89 146.703C416.292 145.344 412.436 141.149 412.292 136.36C412.222 134.106 412.926 131.856 412.607 129.623C412.425 128.359 411.923 127.163 411.147 126.149C410.762 125.665 410.339 125.21 409.884 124.791C409.272 124.214 408.629 123.655 408.07 123.043C407.717 122.664 407.409 122.246 407.152 121.798C406.944 121.431 406.776 121.042 406.649 120.64C405.775 117.966 406.571 114.794 405.609 112.089L405.557 111.941C405.194 110.979 404.455 110.018 403.428 109.944C402.401 109.87 401.522 110.722 400.543 111.102C398.493 111.897 396.282 110.542 394.573 109.162C392.864 107.781 390.936 106.204 388.764 106.51C387.326 106.715 386.189 107.694 384.865 108.201C384.566 108.316 384.257 108.405 383.943 108.467C385.063 105.673 387.123 103.356 389.767 101.915C392.41 100.474 395.474 99.9978 398.431 100.569C401.387 101.14 404.053 102.723 405.969 105.045C407.885 107.368 408.932 110.285 408.931 113.295C408.932 114.204 408.837 115.111 408.647 116C408.669 116.061 408.691 116.118 408.717 116.179C409.224 117.49 409.796 118.835 410.299 119.998L412.769 122.235C412.769 122.235 413.818 123.108 415.391 124.419C418.814 127.303 424.727 132.38 427.778 135.487C430.462 138.23 431.301 148.865 431.555 156.874Z" fill="black"/>
<path d="M384.712 100.218C385.337 98.9464 385.647 97.522 386.395 96.3161C387.492 94.5684 389.406 93.4499 391.373 92.7726C396.509 91.0031 407.362 88.434 410.605 92.7726C411.243 93.6465 411.772 94.6165 412.655 95.2194C413.328 95.6782 414.141 95.8748 414.88 96.22C416.947 97.19 418.267 99.3047 418.971 101.463C419.675 103.622 419.884 105.937 420.4 108.161C421.06 111.014 422.218 113.719 423.372 116.406C424.732 119.578 426.174 122.868 428.797 125.11C432.376 128.168 433.168 132.498 436.489 135.854C440.423 139.838 440.296 146.414 438.268 151.635C438.002 152.321 437.7 153.038 437.805 153.768C437.91 154.497 438.452 155.161 438.963 155.743L441.114 158.167C436.026 159.395 430.27 156.739 427.901 152.077C427.171 150.635 426.686 148.975 425.435 147.948C424.316 147.03 422.813 146.812 421.419 146.401C416.82 145.038 412.965 140.839 412.821 136.05C412.751 133.8 413.455 131.55 413.136 129.322C412.958 128.049 412.454 126.845 411.672 125.826C410.47 124.258 408.656 123.205 407.677 121.457C406.02 118.534 407.279 114.737 406.086 111.6C405.718 110.639 404.984 109.677 403.957 109.603C402.93 109.529 402.051 110.381 401.068 110.761C399.022 111.556 396.811 110.206 395.102 108.821C393.392 107.436 391.465 105.863 389.288 106.173C387.85 106.374 386.718 107.353 385.394 107.864C384.415 108.24 382.43 108.576 381.574 107.75C379.764 106.086 383.956 101.773 384.712 100.218Z" fill="#591D4B"/>
<path opacity="0.1" d="M429.116 150.635C428.382 149.193 427.901 147.533 426.651 146.51C425.532 145.593 424.028 145.37 422.629 144.959C418.036 143.6 414.181 139.401 414.032 134.613C413.962 132.363 414.666 130.108 414.351 127.88C414.168 126.616 413.664 125.42 412.887 124.406C411.68 122.838 409.866 121.785 408.892 120.037C407.235 117.118 408.494 113.321 407.296 110.18C406.934 109.223 406.195 108.262 405.172 108.183C404.149 108.104 403.262 108.965 402.283 109.345C400.237 110.14 398.021 108.786 396.317 107.405C394.612 106.025 392.676 104.447 390.503 104.753C389.065 104.959 387.929 105.937 386.609 106.444C385.63 106.82 383.641 107.161 382.784 106.335C380.984 104.587 385.175 100.283 385.927 98.7367C386.552 97.4609 386.863 96.0409 387.614 94.8349C387.654 94.7694 387.697 94.7039 387.741 94.6383C387.179 95.104 386.693 95.6555 386.303 96.2724C385.556 97.4783 385.245 98.894 384.62 100.174C383.864 101.721 379.672 106.038 381.478 107.772C382.352 108.603 384.319 108.262 385.298 107.886C386.609 107.375 387.754 106.396 389.192 106.195C391.378 105.885 393.301 107.462 395.005 108.843C396.71 110.223 398.939 111.578 400.976 110.783C401.955 110.403 402.812 109.546 403.861 109.625C404.91 109.704 405.609 110.66 405.99 111.622C407.183 114.759 405.924 118.556 407.58 121.479C408.56 123.196 410.373 124.271 411.575 125.848C412.358 126.867 412.862 128.071 413.04 129.343C413.359 131.572 412.655 133.822 412.725 136.072C412.869 140.878 416.724 145.06 421.323 146.423C422.708 146.834 424.22 147.052 425.339 147.97C426.594 148.996 427.088 150.657 427.805 152.099C430.174 156.761 435.93 159.417 441.018 158.189L440.004 157.045C435.593 157.11 431.131 154.602 429.116 150.635Z" fill="black"/>
<path opacity="0.1" d="M398.983 130.694C398.41 131.567 396.771 136.041 395.403 139.948C394.122 139.45 392.96 136.273 392.96 136.273L399.787 126.565C400.486 127.526 400.028 129.121 398.983 130.694Z" fill="black"/>
<path d="M399.245 130.431C398.673 131.305 397.033 135.779 395.665 139.685C394.385 139.192 393.222 136.011 393.222 136.011L400.049 126.307C400.749 127.264 400.29 128.863 399.245 130.431Z" fill="#DCE7FF"/>
<path d="M359.549 175.068L355.764 163.135C355.719 162.996 355.702 162.848 355.714 162.702C355.727 162.556 355.768 162.414 355.835 162.283C355.902 162.153 355.995 162.037 356.107 161.943C356.219 161.848 356.349 161.777 356.489 161.733C356.771 161.645 357.076 161.672 357.338 161.808C357.6 161.943 357.798 162.177 357.888 162.458L361.673 174.377L361.297 176.872L359.549 175.068Z" fill="#BE8B87"/>
<path opacity="0.1" d="M356.122 162.087C356.404 161.997 356.71 162.024 356.973 162.16C357.236 162.296 357.435 162.53 357.525 162.812L361.31 174.731L361.026 176.601L361.302 176.89L361.677 174.395L357.87 162.476C357.78 162.195 357.582 161.961 357.32 161.825C357.058 161.689 356.753 161.662 356.472 161.75C356.235 161.827 356.03 161.981 355.89 162.187C355.965 162.147 356.042 162.114 356.122 162.087Z" fill="white"/>
<path d="M359.549 175.068L361.673 174.395L361.363 176.44L361.297 176.89L360.677 176.243L359.549 175.068Z" fill="#EFC8C4"/>
<path d="M360.677 176.243C360.713 176.196 360.76 176.158 360.812 176.13C360.843 176.11 360.878 176.1 360.915 176.1C360.951 176.1 360.987 176.11 361.017 176.13C361.047 176.165 361.072 176.205 361.092 176.247C361.121 176.296 361.16 176.337 361.207 176.368C361.254 176.399 361.307 176.419 361.363 176.427L361.297 176.864L360.677 176.243Z" fill="#727A9C"/>
<path d="M355.742 167.374C355.742 167.374 363.334 167.33 361.546 170.559C359.759 173.788 356.966 174.176 356.966 174.176L355.742 167.374Z" fill="#FFB0B1"/>
<path d="M308.523 22.4668H308.195C295.153 22.4668 283.618 29.3658 276.983 39.5462C270.348 29.3658 258.813 22.4668 245.77 22.4668H245.443C235.654 22.56 226.298 26.511 219.408 33.461C212.518 40.4111 208.649 49.7987 208.644 59.5837C208.644 71.7346 213.968 88.9757 224.349 103.163C244.127 130.195 276.983 153.846 276.983 153.846C276.983 153.846 309.839 130.2 329.613 103.163C339.998 88.9757 345.317 71.7346 345.317 59.5837C345.312 49.7994 341.444 40.4125 334.555 33.4626C327.665 26.5126 318.31 22.5612 308.523 22.4668ZM303.833 105.243C302.348 105.237 300.899 104.782 299.676 103.939C298.454 103.095 297.516 101.902 296.984 100.515H289.186C288.673 100.512 288.173 100.348 287.757 100.048C287.341 99.7468 287.029 99.3236 286.865 98.8372L284.47 91.6235L276.891 118.097C276.743 118.607 276.434 119.055 276.01 119.374C275.586 119.693 275.07 119.866 274.539 119.866H274.386C273.833 119.84 273.305 119.624 272.891 119.255C272.478 118.886 272.203 118.386 272.114 117.839L264.303 70.8782L258.594 98.6668C258.464 99.1947 258.16 99.6635 257.731 99.9985C257.302 100.334 256.774 100.515 256.23 100.515H245.246C244.917 100.529 244.588 100.476 244.28 100.36C243.971 100.243 243.69 100.066 243.452 99.8379C243.214 99.61 243.024 99.3362 242.895 99.0332C242.766 98.7302 242.699 98.4042 242.699 98.0747C242.699 97.7453 242.766 97.4193 242.895 97.1163C243.024 96.8132 243.214 96.5395 243.452 96.3116C243.69 96.0836 243.971 95.9061 244.28 95.7897C244.588 95.6734 244.917 95.6206 245.246 95.6345H254.307L262.393 58.2729C262.526 57.7205 262.846 57.2314 263.3 56.8891C263.753 56.5468 264.312 56.3727 264.879 56.3964C265.447 56.4202 265.989 56.6403 266.413 57.0192C266.836 57.3982 267.115 57.9124 267.201 58.4739L275.178 106.379L281.97 82.6927C282.111 82.1939 282.41 81.7542 282.822 81.4392C283.234 81.1242 283.737 80.9508 284.256 80.945H284.304C284.818 80.9452 285.318 81.1075 285.734 81.4088C286.15 81.71 286.46 82.1349 286.621 82.6228L290.952 95.6476H296.888C297.31 94.366 298.078 93.2258 299.107 92.3529C300.136 91.48 301.387 90.9084 302.721 90.7011C304.055 90.4939 305.42 90.659 306.666 91.1784C307.911 91.6977 308.99 92.551 309.781 93.6441C310.572 94.7372 311.046 96.0277 311.15 97.373C311.254 98.7183 310.984 100.066 310.37 101.268C309.756 102.469 308.822 103.478 307.671 104.183C306.52 104.887 305.196 105.26 303.846 105.26L303.833 105.243Z" fill="#AA0113"/>
</g>
<defs>
<linearGradient id="paint0_linear_1_270" x1="155.748" y1="338.561" x2="155.748" y2="69.7029" gradientUnits="userSpaceOnUse">
<stop stop-color="#808080" stop-opacity="0.25"/>
<stop offset="0.54" stop-color="#808080" stop-opacity="0.12"/>
<stop offset="1" stop-color="#808080" stop-opacity="0.1"/>
</linearGradient>
<linearGradient id="paint1_linear_1_270" x1="390.508" y1="335.162" x2="390.508" y2="89.6093" gradientUnits="userSpaceOnUse">
<stop stop-color="#808080" stop-opacity="0.25"/>
<stop offset="0.54" stop-color="#808080" stop-opacity="0.12"/>
<stop offset="1" stop-color="#808080" stop-opacity="0.1"/>
</linearGradient>
<clipPath id="clip0_1_270">
<rect width="483" height="342" fill="white"/>
</clipPath>
</defs>
</svg>
